<svg width="165" height="165" viewBox="0 0 165 165" fill="none" xmlns="http://www.w3.org/2000/svg">
<path d="M61.8311 74.533L66.1497 74.0531V78.1918H69.8985V81.7907H66.1197V87.3689C66.1197 88.6885 66.6795 89.3483 67.7992 89.3483C68.5189 89.3483 69.1187 89.2283 69.5986 88.9884L70.5883 92.5872C69.6086 92.9671 68.5689 93.1871 67.4693 93.247C65.7298 93.327 64.3503 92.9171 63.3306 92.0174C62.3309 91.0977 61.8311 89.5482 61.8311 87.3689V81.7907H59.1919V78.1918H61.8311V74.533Z" fill="#009393"/>
<path d="M86.0617 86.9191H75.1752C75.2951 87.6788 75.705 88.3086 76.4048 88.8084C77.1046 89.2883 78.0343 89.5282 79.1939 89.5282C80.8534 89.5282 82.1329 89.1383 83.0327 88.3586L85.4619 91.0577C83.9824 92.5173 81.863 93.247 79.1039 93.247C76.4648 93.247 74.4154 92.5373 72.9559 91.1177C71.5163 89.6982 70.7966 87.7788 70.7966 85.3595C70.7966 83.0803 71.5063 81.2409 72.9259 79.8413C74.3454 78.4218 76.2548 77.712 78.6541 77.712C81.2732 77.712 83.2726 78.5117 84.6521 80.1112C86.0517 81.7107 86.5216 83.98 86.0617 86.9191ZM75.1752 83.7701H82.1929C82.1529 83.0103 81.7931 82.4305 81.1133 82.0306C80.4335 81.6107 79.6138 81.4008 78.6541 81.4008C77.7943 81.4008 77.0546 81.6107 76.4348 82.0306C75.815 82.4505 75.3951 83.0303 75.1752 83.7701Z" fill="#009393"/>
<path d="M89.6621 74.533L93.9808 74.0531V78.1918H97.7296V81.7907H93.9508V87.3689C93.9508 88.6885 94.5106 89.3483 95.6302 89.3483C96.35 89.3483 96.9498 89.2283 97.4297 88.9884L98.4194 92.5872C97.4397 92.9671 96.4 93.1871 95.3004 93.247C93.5609 93.327 92.1813 92.9171 91.1617 92.0174C90.162 91.0977 89.6621 89.5482 89.6621 87.3689V81.7907H87.023V78.1918H89.6621V74.533Z" fill="#009393"/>
<path d="M100.039 71.9238H104.387V79.9313C105.447 78.5517 106.947 77.8619 108.886 77.8619C112.825 77.8619 114.794 80.2312 114.794 84.9697V92.9171H110.475V84.9997C110.475 83.98 110.216 83.1902 109.696 82.6304C109.196 82.0706 108.516 81.7907 107.656 81.7907C106.717 81.7907 105.927 82.1106 105.287 82.7504C104.667 83.3902 104.357 84.2799 104.357 85.4195V92.9171H100.039V71.9238Z" fill="#009393"/>
<path d="M131.731 86.9191H120.845C120.965 87.6788 121.375 88.3086 122.074 88.8084C122.774 89.2883 123.704 89.5282 124.864 89.5282C126.523 89.5282 127.803 89.1383 128.702 88.3586L131.132 91.0577C129.652 92.5173 127.533 93.247 124.774 93.247C122.134 93.247 120.085 92.5373 118.626 91.1177C117.186 89.6982 116.466 87.7788 116.466 85.3595C116.466 83.0803 117.176 81.2409 118.596 79.8413C120.015 78.4218 121.924 77.712 124.324 77.712C126.943 77.712 128.942 78.5117 130.322 80.1112C131.721 81.7107 132.191 83.98 131.731 86.9191ZM120.845 83.7701H127.863C127.823 83.0103 127.463 82.4305 126.783 82.0306C126.103 81.6107 125.283 81.4008 124.324 81.4008C123.464 81.4008 122.724 81.6107 122.104 82.0306C121.485 82.4505 121.065 83.0303 120.845 83.7701Z" fill="#009393"/>
<path d="M133.522 78.1319H137.541L137.871 79.7513C138.811 78.4318 140.13 77.772 141.83 77.772C143.229 77.772 144.439 78.2218 145.459 79.1215L143.659 82.5404C142.959 82.0406 142.17 81.7907 141.29 81.7907C140.31 81.7907 139.491 82.1006 138.831 82.7204C138.171 83.3202 137.841 84.1499 137.841 85.2096V92.9171H133.522V78.1319Z" fill="#009393"/>
<path d="M30.1067 80.6271C30.9239 81.5329 34.2569 82.2122 38.2465 82.2123C42.236 82.2122 45.5691 81.5329 46.3844 80.6271C45.6939 79.8583 43.1909 79.2532 40.0126 79.0876V81.0039C39.4431 81.0325 38.8509 81.0477 38.2455 81.0477C37.6401 81.0477 37.048 81.0344 36.4785 81.0039V79.0876C33.3021 79.2532 30.7991 79.8583 30.1067 80.6271Z" fill="#009393"/>
<path fill-rule="evenodd" clip-rule="evenodd" d="M48.8305 69.6204L54.2734 79.021V79.0229C54.5553 79.5101 54.472 80.1247 54.0691 80.5206L39.0854 95.2324C38.5992 95.7101 37.8178 95.7101 37.3335 95.2324L22.3688 80.5396C21.9582 80.1343 21.8807 79.5025 22.1834 79.0115L28.0009 69.5899C28.2279 69.2246 28.6309 69 29.0641 69H47.7502C48.1967 69 48.6072 69.236 48.8305 69.6204ZM40.0144 75.8355V77.6642H40.0126C43.7509 77.8602 46.5566 78.6633 46.5774 79.6262V81.6319C46.5566 82.5948 43.7509 83.3959 40.0126 83.592V88.0811H36.4785V83.592C32.7402 83.3959 29.9364 82.5948 29.9156 81.6319V79.6262C29.9364 78.6633 32.7402 77.8602 36.4785 77.6642V75.8355H31.1567V73.1979H45.3363V75.8355H40.0144Z" fill="#009393"/>
</svg>
