<svg xmlns="http://www.w3.org/2000/svg" viewBox="0 0 700.75 105.23"><defs><style>.cls-1{fill:#05619d;}</style></defs><g id="Capa_2" data-name="Capa 2"><g id="Capa_1-2" data-name="Capa 1"><path class="cls-1" d="M180.58,84.2a25.63,25.63,0,0,1-11.8-2.45,15.66,15.66,0,0,1-7.12-7.24,26.4,26.4,0,0,1-2.34-11.68V35.27h-7A5,5,0,0,1,148.7,34a4.35,4.35,0,0,1-1.29-3.33,4.34,4.34,0,0,1,1.29-3.38,5.17,5.17,0,0,1,3.62-1.17h7v-12a5.91,5.91,0,0,1,1.58-4.44,6.06,6.06,0,0,1,4.38-1.51,5.84,5.84,0,0,1,4.32,1.51,6.05,6.05,0,0,1,1.52,4.44v12h13.66a5.17,5.17,0,0,1,3.62,1.17,4.34,4.34,0,0,1,1.29,3.38A4.35,4.35,0,0,1,188.4,34a5,5,0,0,1-3.62,1.23H171.12V61.9c0,4.12.88,7.24,2.63,9.34s4.61,3.15,8.58,3.15A14.91,14.91,0,0,0,186,74a18.71,18.71,0,0,1,2.63-.53,2.74,2.74,0,0,1,2.1.88,5,5,0,0,1,.82,3.32,8.35,8.35,0,0,1-.65,3.28,3.31,3.31,0,0,1-2.27,2,28.08,28.08,0,0,1-3.8.88A25.88,25.88,0,0,1,180.58,84.2Z"/><path class="cls-1" d="M202.42,84A5.84,5.84,0,0,1,198,82.39,6.05,6.05,0,0,1,196.46,78V31.3A6,6,0,0,1,198,26.86a6.66,6.66,0,0,1,8.47,0,6.17,6.17,0,0,1,1.46,4.44v8.53h-1.17a18.33,18.33,0,0,1,6.89-10.63A24.74,24.74,0,0,1,226.48,25,4.3,4.3,0,0,1,229.8,26a5.16,5.16,0,0,1,1.35,3.62,5,5,0,0,1-1.05,3.92,5.76,5.76,0,0,1-4,1.69l-2.22.23q-7.59.7-11.57,4.79t-4,11.21V78a6.16,6.16,0,0,1-1.46,4.37A5.8,5.8,0,0,1,202.42,84Z"/><path class="cls-1" d="M255.21,84.2a23.75,23.75,0,0,1-10.69-2.33,18.79,18.79,0,0,1-7.42-6.31,15.65,15.65,0,0,1-2.68-9q0-6.3,3.21-10t10.63-5.25q7.41-1.57,20-1.58h5.49V57H268.4a85.57,85.57,0,0,0-13.31.82q-4.91.82-7,2.74a7,7,0,0,0-2,5.32,9.23,9.23,0,0,0,3,7.18q3,2.74,8.41,2.75a14,14,0,0,0,7.59-2,14.78,14.78,0,0,0,5.2-5.55,16.47,16.47,0,0,0,1.93-8.05V46.72q0-6.66-2.81-9.58t-9.22-2.92a34.51,34.51,0,0,0-7.77.93,36.59,36.59,0,0,0-8.35,3.16,5.18,5.18,0,0,1-3.39.58,3.66,3.66,0,0,1-2.22-1.58,5.14,5.14,0,0,1-.87-2.68,5.39,5.39,0,0,1,.7-2.86A4.71,4.71,0,0,1,241,29.66a45.07,45.07,0,0,1,10.16-3.5,46.25,46.25,0,0,1,9.46-1.05c5.21,0,9.52.82,12.9,2.45A15.83,15.83,0,0,1,281,35c1.63,3.34,2.45,7.67,2.45,13V78a6.37,6.37,0,0,1-1.4,4.37A5.17,5.17,0,0,1,278,84a5.39,5.39,0,0,1-4.09-1.58A6.05,6.05,0,0,1,272.37,78v-7.6h1.06A17.55,17.55,0,0,1,270,77.84a16.46,16.46,0,0,1-6.25,4.73A21.06,21.06,0,0,1,255.21,84.2Z"/><path class="cls-1" d="M319,84.2a24.13,24.13,0,0,1-13.14-3.56A23.63,23.63,0,0,1,297,70.36a36.6,36.6,0,0,1-3.15-15.7A36.09,36.09,0,0,1,297,38.89a24.23,24.23,0,0,1,8.82-10.16A23.91,23.91,0,0,1,319,25.11a22.42,22.42,0,0,1,12.91,3.68,17.78,17.78,0,0,1,7.29,9.87h-1.28V6a6,6,0,0,1,1.52-4.44A5.85,5.85,0,0,1,343.73,0a6.06,6.06,0,0,1,4.38,1.52A5.88,5.88,0,0,1,349.69,6V78a6.05,6.05,0,0,1-1.52,4.37,6.7,6.7,0,0,1-8.64,0A6,6,0,0,1,338,78V67.74l1.28,2.57a18.35,18.35,0,0,1-7.3,10.1A22.15,22.15,0,0,1,319,84.2Zm3-9.1a15.17,15.17,0,0,0,8.41-2.34,15.5,15.5,0,0,0,5.66-6.89,27.42,27.42,0,0,0,2-11.21q0-10-4.43-15.19A14.71,14.71,0,0,0,322,34.34a15.66,15.66,0,0,0-8.53,2.27,15.11,15.11,0,0,0-5.66,6.83,27.27,27.27,0,0,0-2.05,11.22q0,9.93,4.44,15.18A14.68,14.68,0,0,0,322,75.1Z"/><path class="cls-1" d="M369.66,13.43a7.76,7.76,0,0,1-5.43-1.75,6.28,6.28,0,0,1-1.93-4.91,6.23,6.23,0,0,1,1.93-5,9.57,9.57,0,0,1,10.86,0,6.26,6.26,0,0,1,1.92,5,6.31,6.31,0,0,1-1.92,4.91A7.79,7.79,0,0,1,369.66,13.43Zm0,70.42a5.49,5.49,0,0,1-4.32-1.69,6.79,6.79,0,0,1-1.52-4.73V31.88a6.58,6.58,0,0,1,1.52-4.67,5.6,5.6,0,0,1,4.32-1.63A5.79,5.79,0,0,1,374,27.21a6.47,6.47,0,0,1,1.57,4.67V77.43a6.84,6.84,0,0,1-1.51,4.73A5.67,5.67,0,0,1,369.66,83.85Z"/><path class="cls-1" d="M395.58,84a5.68,5.68,0,0,1-4.32-1.58A6.05,6.05,0,0,1,389.74,78V31.3a6,6,0,0,1,1.52-4.44,6.66,6.66,0,0,1,8.47,0,6.17,6.17,0,0,1,1.46,4.44v9.11l-1.28-2.1a19.41,19.41,0,0,1,8-9.87,23.86,23.86,0,0,1,12.62-3.33,22.94,22.94,0,0,1,11.27,2.51,15.53,15.53,0,0,1,6.71,7.59A32.06,32.06,0,0,1,440.78,48V78a6.05,6.05,0,0,1-1.52,4.37A5.68,5.68,0,0,1,434.94,84a5.84,5.84,0,0,1-4.44-1.58A6.05,6.05,0,0,1,429,78V48.7c0-4.9-1-8.49-2.86-10.74s-4.88-3.39-8.93-3.39q-7.12,0-11.39,4.44t-4.26,11.91V78Q401.54,84,395.58,84Z"/><path class="cls-1" d="M480.37,105.23a56.93,56.93,0,0,1-12.2-1.29,34.59,34.59,0,0,1-10.69-4.2,5,5,0,0,1-2.34-2.28,4.47,4.47,0,0,1-.29-2.74,5.22,5.22,0,0,1,1.23-2.46,4.55,4.55,0,0,1,2.27-1.4,3.88,3.88,0,0,1,2.87.47A36.39,36.39,0,0,0,471,95.12a41,41,0,0,0,8.58,1q8.18,0,12.27-4.15t4.08-12.2V67.85H497A17.35,17.35,0,0,1,489.6,78a22.85,22.85,0,0,1-13,3.73,24.85,24.85,0,0,1-13.43-3.56,23.85,23.85,0,0,1-8.87-9.93,33,33,0,0,1-3.16-14.89A34.58,34.58,0,0,1,453,41.81a26.43,26.43,0,0,1,5.14-8.88,22.85,22.85,0,0,1,8.06-5.78,26.12,26.12,0,0,1,10.45-2,22.74,22.74,0,0,1,13,3.74A17,17,0,0,1,496.84,39l-1.17,2V31.3a5.88,5.88,0,0,1,1.58-4.44,6.81,6.81,0,0,1,8.58,0,6,6,0,0,1,1.52,4.44V78.37q0,13.3-6.89,20.08T480.37,105.23Zm-.93-32.7a15.77,15.77,0,0,0,8.75-2.34,15.25,15.25,0,0,0,5.61-6.66,24.17,24.17,0,0,0,2-10.16q0-8.76-4.38-13.9t-12-5.13a15,15,0,0,0-14.31,8.93,23,23,0,0,0-2.05,10.1q0,8.88,4.44,14A15,15,0,0,0,479.44,72.53Z"/><path class="cls-1" d="M541.45,84.2A50.73,50.73,0,0,1,530.88,83a31.47,31.47,0,0,1-10-4,5.83,5.83,0,0,1-2.11-2.34,4.81,4.81,0,0,1-.41-2.63,4.27,4.27,0,0,1,1.06-2.33,3.74,3.74,0,0,1,2.21-1.23,4.48,4.48,0,0,1,2.87.58,33.29,33.29,0,0,0,8.76,3.57,36,36,0,0,0,8.29,1c4.12,0,7.24-.74,9.34-2.22a6.93,6.93,0,0,0,3.15-6,5.74,5.74,0,0,0-2.1-4.73,15.48,15.48,0,0,0-6.31-2.62l-11.09-2.22c-4.83-1-8.49-2.81-11-5.37a13.53,13.53,0,0,1-3.74-9.82,15.38,15.38,0,0,1,2.92-9.34,18.76,18.76,0,0,1,8.18-6.13,31.75,31.75,0,0,1,12.15-2.16,35.84,35.84,0,0,1,9.69,1.28,29.65,29.65,0,0,1,8.41,3.86,3.9,3.9,0,0,1,2,2.16,4.76,4.76,0,0,1,.18,2.63,4.92,4.92,0,0,1-1.23,2.27,3.61,3.61,0,0,1-2.28,1.17,5.18,5.18,0,0,1-3-.64,25.24,25.24,0,0,0-13.78-4.09q-6.2,0-9.29,2.28a7.23,7.23,0,0,0-3.09,6.13A6.5,6.5,0,0,0,532.57,47a11.49,11.49,0,0,0,5.84,2.69l11.1,2.21Q557.1,53.38,561,57a12.72,12.72,0,0,1,3.91,9.81,14.9,14.9,0,0,1-6.42,12.73Q552.08,84.21,541.45,84.2Z"/><path class="cls-1" d="M595.87,84.2a23.32,23.32,0,0,1-11.5-2.57A15.92,15.92,0,0,1,577.48,74,31.32,31.32,0,0,1,575.2,61.2V31.3a6,6,0,0,1,1.52-4.5A6,6,0,0,1,581,25.34a6.21,6.21,0,0,1,4.38,1.46A5.88,5.88,0,0,1,587,31.3v30q0,6.9,2.8,10.16t8.88,3.27a14,14,0,0,0,10.8-4.49q4.14-4.5,4.15-11.86V31.3a6,6,0,0,1,1.51-4.5,6.2,6.2,0,0,1,4.44-1.46,6,6,0,0,1,4.32,1.46,6,6,0,0,1,1.52,4.5V78q0,6-5.72,6a5.52,5.52,0,0,1-4.2-1.58A6,6,0,0,1,614,78V68.09l1.52,2.57a19.81,19.81,0,0,1-7.48,10A21,21,0,0,1,595.87,84.2Z"/><path class="cls-1" d="M645.39,13.43A7.76,7.76,0,0,1,640,11.68,6.28,6.28,0,0,1,638,6.77a6.23,6.23,0,0,1,1.93-5,9.57,9.57,0,0,1,10.86,0,6.23,6.23,0,0,1,1.93,5,6.28,6.28,0,0,1-1.93,4.91A7.76,7.76,0,0,1,645.39,13.43Zm0,70.42a5.49,5.49,0,0,1-4.32-1.69,6.84,6.84,0,0,1-1.52-4.73V31.88a6.63,6.63,0,0,1,1.52-4.67,5.6,5.6,0,0,1,4.32-1.63,5.79,5.79,0,0,1,4.38,1.63,6.47,6.47,0,0,1,1.58,4.67V77.43a6.84,6.84,0,0,1-1.52,4.73A5.64,5.64,0,0,1,645.39,83.85Z"/><path class="cls-1" d="M689.77,84.2A25.63,25.63,0,0,1,678,81.75a15.66,15.66,0,0,1-7.12-7.24,26.4,26.4,0,0,1-2.34-11.68V35.27h-7A5,5,0,0,1,657.89,34a4.35,4.35,0,0,1-1.29-3.33,4.34,4.34,0,0,1,1.29-3.38,5.17,5.17,0,0,1,3.62-1.17h7v-12a5.91,5.91,0,0,1,1.58-4.44,6.06,6.06,0,0,1,4.38-1.51,5.84,5.84,0,0,1,4.32,1.51,6.05,6.05,0,0,1,1.52,4.44v12H694a5.17,5.17,0,0,1,3.62,1.17,4.34,4.34,0,0,1,1.29,3.38A4.35,4.35,0,0,1,697.59,34,5,5,0,0,1,694,35.27H680.31V61.9c0,4.12.88,7.24,2.63,9.34s4.61,3.15,8.58,3.15a14.91,14.91,0,0,0,3.68-.4,18.71,18.71,0,0,1,2.63-.53,2.74,2.74,0,0,1,2.1.88,5,5,0,0,1,.82,3.32,8.35,8.35,0,0,1-.65,3.28,3.31,3.31,0,0,1-2.27,2,28.08,28.08,0,0,1-3.8.88A25.78,25.78,0,0,1,689.77,84.2Z"/><rect class="cls-1" x="24.56" y="45.93" width="49.12" height="49.12" transform="translate(-35.46 55.38) rotate(-45)"/><rect class="cls-1" width="98.27" height="35.75"/></g></g></svg>